<?xml version="1.0" encoding="UTF-8" standalone="no"?>
<!-- Created with Keyshape -->
<svg xmlns="http://www.w3.org/2000/svg" id="main-welcome" shape-rendering="geometricPrecision" text-rendering="geometricPrecision" viewBox="0 0 1414 714" style="white-space: pre;">
    <style>
@keyframes a0_sw { 0% { stroke-width: 0px; } 0.55% { stroke-width: 5px; } 100% { stroke-width: 5px; } }
@keyframes a1_sw { 0% { stroke-width: 0px; } 0.55% { stroke-width: 0px; } 1.1% { stroke-width: 5px; } 100% { stroke-width: 5px; } }
@keyframes a2_sw { 0% { stroke-width: 0px; } 1.1% { stroke-width: 0px; } 1.65% { stroke-width: 5px; } 100% { stroke-width: 5px; } }
@keyframes a3_sw { 0% { stroke-width: 0px; } 1.65% { stroke-width: 0px; } 2.2% { stroke-width: 5px; } 100% { stroke-width: 5px; } }
@keyframes a4_sw { 0% { stroke-width: 0px; } 2.2% { stroke-width: 0px; } 2.775% { stroke-width: 5px; } 100% { stroke-width: 5px; } }
@keyframes a5_sw { 0% { stroke-width: 0px; } 2.775% { stroke-width: 0px; } 3.325% { stroke-width: 5px; } 100% { stroke-width: 5px; } }
@keyframes a6_sw { 0% { stroke-width: 0px; } 3.325% { stroke-width: 0px; } 3.875% { stroke-width: 5px; } 100% { stroke-width: 5px; } }
@keyframes a7_sw { 0% { stroke-width: 0px; } 3.875% { stroke-width: 0px; } 4.425% { stroke-width: 5px; } 100% { stroke-width: 5px; } }
@keyframes a8_sw { 0% { stroke-width: 0px; } 4.425% { stroke-width: 0px; } 5% { stroke-width: 5px; } 100% { stroke-width: 5px; } }
@keyframes a9_sw { 0% { stroke-width: 0px; } 5.1125% { stroke-width: 0px; } 5.7% { stroke-width: 5px; } 100% { stroke-width: 5px; } }
@keyframes a10_sw { 0% { stroke-width: 0px; } 5.7% { stroke-width: 0px; } 6.3125% { stroke-width: 5px; } 100% { stroke-width: 5px; } }
@keyframes a11_sw { 0% { stroke-width: 0px; } 6.3125% { stroke-width: 0px; } 6.925% { stroke-width: 5px; } 100% { stroke-width: 5px; } }
@keyframes a12_sw { 0% { stroke-width: 0px; } 6.925% { stroke-width: 0px; } 7.5375% { stroke-width: 5px; } 100% { stroke-width: 5px; } }
@keyframes a13_sw { 0% { stroke-width: 0px; } 7.5375% { stroke-width: 0px; } 8.15% { stroke-width: 5px; } 100% { stroke-width: 5px; } }
@keyframes a14_sw { 0% { stroke-width: 0px; } 8.15% { stroke-width: 0px; } 8.7625% { stroke-width: 5px; } 100% { stroke-width: 5px; } }
@keyframes a15_sw { 0% { stroke-width: 0px; } 8.7625% { stroke-width: 0px; } 9.375% { stroke-width: 5px; } 100% { stroke-width: 5px; } }
@keyframes a16_sw { 0% { stroke-width: 0px; } 9.375% { stroke-width: 0px; } 10% { stroke-width: 5px; } 100% { stroke-width: 5px; } }
@keyframes a17_sw { 0% { stroke-width: 0px; } 15% { stroke-width: 0px; } 15.625% { stroke-width: 5px; } 100% { stroke-width: 5px; } }
@keyframes a18_sw { 0% { stroke-width: 0px; } 15.625% { stroke-width: 0px; } 16.25% { stroke-width: 5px; } 100% { stroke-width: 5px; } }
@keyframes a19_sw { 0% { stroke-width: 0px; } 16.25% { stroke-width: 0px; } 16.875% { stroke-width: 5px; } 100% { stroke-width: 5px; } }
@keyframes a20_sw { 0% { stroke-width: 0px; } 16.875% { stroke-width: 0px; } 17.5% { stroke-width: 5px; } 100% { stroke-width: 5px; } }
@keyframes a21_sw { 0% { stroke-width: 0px; } 17.5% { stroke-width: 0px; } 18.125% { stroke-width: 5px; } 100% { stroke-width: 5px; } }
@keyframes a22_sw { 0% { stroke-width: 0px; } 18.125% { stroke-width: 0px; } 18.75% { stroke-width: 5px; } 100% { stroke-width: 5px; } }
@keyframes a23_sw { 0% { stroke-width: 0px; } 18.75% { stroke-width: 0px; } 19.375% { stroke-width: 5px; } 100% { stroke-width: 5px; } }
@keyframes a24_sw { 0% { stroke-width: 0px; } 19.375% { stroke-width: 0px; } 20% { stroke-width: 5px; } 100% { stroke-width: 5px; } }
@keyframes a25_sw { 0% { stroke-width: 0px; } 9.65% { stroke-width: 0px; } 10.4375% { stroke-width: 5px; } 100% { stroke-width: 5px; } }
@keyframes a26_sw { 0% { stroke-width: 0px; } 10.4375% { stroke-width: 0px; } 11.2625% { stroke-width: 5px; } 100% { stroke-width: 5px; } }
@keyframes a27_sw { 0% { stroke-width: 0px; } 11.2625% { stroke-width: 0px; } 12.075% { stroke-width: 5px; } 100% { stroke-width: 5px; } }
@keyframes a28_sw { 0% { stroke-width: 0px; } 12.075% { stroke-width: 0px; } 12.9% { stroke-width: 5px; } 100% { stroke-width: 5px; } }
@keyframes a29_sw { 0% { stroke-width: 0px; } 12.9% { stroke-width: 0px; } 13.75% { stroke-width: 5px; } 100% { stroke-width: 5px; } }
@keyframes a30_sw { 0% { stroke-width: 0px; } 13.75% { stroke-width: 0px; } 14.775% { stroke-width: 5px; } 100% { stroke-width: 5px; } }
@keyframes a31_sw { 0% { stroke-width: 0px; } 14.775% { stroke-width: 0px; } 15.8125% { stroke-width: 5px; } 100% { stroke-width: 5px; } }
@keyframes a32_sw { 0% { stroke-width: 0px; } 15.8125% { stroke-width: 0px; } 16.875% { stroke-width: 5px; } 100% { stroke-width: 5px; } }
@keyframes a33_sw { 0% { stroke-width: 0px; } 16.875% { stroke-width: 0px; } 17.9% { stroke-width: 5px; } 100% { stroke-width: 5px; } }
@keyframes a34_sw { 0% { stroke-width: 0px; } 17.9% { stroke-width: 0px; } 18.9375% { stroke-width: 5px; } 100% { stroke-width: 5px; } }
@keyframes a35_sw { 0% { stroke-width: 0px; } 18.9375% { stroke-width: 0px; } 20% { stroke-width: 5px; } 100% { stroke-width: 5px; } }
@keyframes a36_sw { 0% { stroke-width: 0px; } 20% { stroke-width: 0px; } 20.9375% { stroke-width: 5px; } 100% { stroke-width: 5px; } }
@keyframes a37_sw { 0% { stroke-width: 0px; } 20.9375% { stroke-width: 0px; } 21.875% { stroke-width: 5px; } 100% { stroke-width: 5px; } }
@keyframes a38_sw { 0% { stroke-width: 0px; } 21.875% { stroke-width: 0px; } 22.8125% { stroke-width: 5px; } 100% { stroke-width: 5px; } }
@keyframes a39_sw { 0% { stroke-width: 0px; } 22.8125% { stroke-width: 0px; } 23.75% { stroke-width: 5px; } 100% { stroke-width: 5px; } }
@keyframes a40_sw { 0% { stroke-width: 0px; } 23.75% { stroke-width: 0px; } 24.6875% { stroke-width: 5px; } 100% { stroke-width: 5px; } }
@keyframes a41_sw { 0% { stroke-width: 0px; } 24.6875% { stroke-width: 0px; } 25.625% { stroke-width: 5px; } 100% { stroke-width: 5px; } }
@keyframes a42_sw { 0% { stroke-width: 0px; } 25.625% { stroke-width: 0px; } 26.5625% { stroke-width: 5px; } 100% { stroke-width: 5px; } }
@keyframes a43_sw { 0% { stroke-width: 0px; } 26.5625% { stroke-width: 0px; } 27.5% { stroke-width: 5px; } 100% { stroke-width: 5px; } }
@keyframes a44_sw { 0% { stroke-width: 0px; } 12.5% { stroke-width: 0px; } 12.95% { stroke-width: 5px; } 100% { stroke-width: 5px; } }
@keyframes a45_sw { 0% { stroke-width: 0px; } 12.95% { stroke-width: 0px; } 13.4% { stroke-width: 5px; } 100% { stroke-width: 5px; } }
@keyframes a46_sw { 0% { stroke-width: 0px; } 13.4% { stroke-width: 0px; } 13.85% { stroke-width: 5px; } 100% { stroke-width: 5px; } }
@keyframes a47_sw { 0% { stroke-width: 0px; } 13.85% { stroke-width: 0px; } 14.3% { stroke-width: 5px; } 100% { stroke-width: 5px; } }
@keyframes a48_sw { 0% { stroke-width: 0px; } 14.3% { stroke-width: 0px; } 14.75% { stroke-width: 5px; } 100% { stroke-width: 5px; } }
@keyframes a49_sw { 0% { stroke-width: 0px; } 14.75% { stroke-width: 0px; } 15.2% { stroke-width: 5px; } 100% { stroke-width: 5px; } }
@keyframes a50_sw { 0% { stroke-width: 0px; } 15.2% { stroke-width: 0px; } 15.65% { stroke-width: 5px; } 100% { stroke-width: 5px; } }
@keyframes a51_sw { 0% { stroke-width: 0px; } 15.65% { stroke-width: 0px; } 16.125% { stroke-width: 5px; } 100% { stroke-width: 5px; } }
@keyframes a52_sw { 0% { stroke-width: 0px; } 16.125% { stroke-width: 0px; } 16.575% { stroke-width: 5px; } 100% { stroke-width: 5px; } }
@keyframes a53_sw { 0% { stroke-width: 0px; } 16.575% { stroke-width: 0px; } 17.025% { stroke-width: 5px; } 100% { stroke-width: 5px; } }
@keyframes a54_sw { 0% { stroke-width: 0px; } 17.025% { stroke-width: 0px; } 17.5% { stroke-width: 5px; } 100% { stroke-width: 5px; } }
@keyframes a55_sw { 0% { stroke-width: 0px; } 23.75% { stroke-width: 0px; } 25.2% { stroke-width: 5px; } 100% { stroke-width: 5px; } }
@keyframes a56_sw { 0% { stroke-width: 0px; } 25.2% { stroke-width: 0px; } 26.6625% { stroke-width: 5px; } 100% { stroke-width: 5px; } }
@keyframes a57_sw { 0% { stroke-width: 0px; } 26.6625% { stroke-width: 0px; } 28.125% { stroke-width: 5px; } 100% { stroke-width: 5px; } }
@keyframes a58_sw { 0% { stroke-width: 0px; } 28.125% { stroke-width: 0px; } 29.575% { stroke-width: 5px; } 100% { stroke-width: 5px; } }
@keyframes a59_sw { 0% { stroke-width: 0px; } 29.575% { stroke-width: 0px; } 31.0375% { stroke-width: 5px; } 100% { stroke-width: 5px; } }
@keyframes a60_sw { 0% { stroke-width: 0px; } 31.0375% { stroke-width: 0px; } 32.5% { stroke-width: 5px; } 100% { stroke-width: 5px; } }
@keyframes a61_sw { 0% { stroke-width: 0px; } 30% { stroke-width: 0px; } 31.9375% { stroke-width: 5px; } 100% { stroke-width: 5px; } }
@keyframes a62_sw { 0% { stroke-width: 0px; } 31.9375% { stroke-width: 0px; } 33.8875% { stroke-width: 5px; } 100% { stroke-width: 5px; } }
@keyframes a63_sw { 0% { stroke-width: 0px; } 33.8875% { stroke-width: 0px; } 35.825% { stroke-width: 5px; } 100% { stroke-width: 5px; } }
@keyframes a64_sw { 0% { stroke-width: 0px; } 35.825% { stroke-width: 0px; } 37.775% { stroke-width: 5px; } 100% { stroke-width: 5px; } }
@keyframes a65_sw { 0% { stroke-width: 0px; } 37.775% { stroke-width: 0px; } 39.7125% { stroke-width: 5px; } 100% { stroke-width: 5px; } }
@keyframes a66_sw { 0% { stroke-width: 0px; } 39.7125% { stroke-width: 0px; } 41.6625% { stroke-width: 5px; } 100% { stroke-width: 5px; } }
@keyframes a67_sw { 0% { stroke-width: 0px; } 41.6625% { stroke-width: 0px; } 43.6% { stroke-width: 5px; } 100% { stroke-width: 5px; } }
@keyframes a68_sw { 0% { stroke-width: 0px; } 43.6% { stroke-width: 0px; } 47.5% { stroke-width: 5px; } 100% { stroke-width: 5px; } }
@keyframes ultrareality_o { 0% { opacity: 0; } 47.5% { opacity: 0; } 75% { opacity: 1; } 100% { opacity: 1; } }
@keyframes ultrareality_ft { 0% { filter: drop-shadow(5px 5px 2px rgba(138,138,211,0.50)) hue-rotate(360deg); } 30% { filter: drop-shadow(5px 5px 2px rgba(138,138,211,0.50)) hue-rotate(0deg); } 50.875% { filter: drop-shadow(5px 5px 2px rgba(138,138,211,0.50)) hue-rotate(360deg); } 80% { filter: drop-shadow(5px 5px 2px rgba(138,138,211,0.50)) hue-rotate(0deg); } 100% { filter: drop-shadow(5px 5px 2px rgba(138,138,211,0.50)) hue-rotate(360deg); } }

    </style>
    <g id="welcome" transform="translate(707,142.417) translate(-370,-50)">
        <g id="w" transform="translate(62.5,50) translate(-62.5,-50)">
            <rect id="we" width="25" height="25" stroke="#bf265e" fill="none" stroke-width="0" fill-rule="nonzero" stroke-opacity="1" stroke-dasharray="none" transform="translate(12.5,12) translate(-12.5,-12)" style="animation: 8s linear both a0_sw;"/>
            <rect width="25" height="25" stroke="#bf265e" fill="none" stroke-width="0" transform="translate(12.5,37) translate(-12.5,-12)" style="animation: 8s linear both a1_sw;"/>
            <rect width="25" height="25" stroke="#bf265e" fill="none" stroke-width="0" transform="translate(12.5,62) translate(-12.5,-12)" style="animation: 8s linear both a2_sw;"/>
            <rect width="25" height="25" stroke="#bf265e" fill="none" stroke-width="0" transform="translate(37.5,87) translate(-12.5,-12)" style="animation: 8s linear both a3_sw;"/>
            <rect width="25" height="25" stroke="#bf265e" fill="none" stroke-width="0" transform="translate(62.5,62) translate(-12.5,-12)" style="animation: 8s linear both a4_sw;"/>
            <rect width="25" height="25" stroke="#bf265e" fill="none" stroke-width="0" transform="translate(87.5,87) translate(-12.5,-12)" style="animation: 8s linear both a5_sw;"/>
            <rect width="25" height="25" stroke="#bf265e" fill="none" stroke-width="0" transform="translate(112.5,62) translate(-12.5,-12)" style="animation: 8s linear both a6_sw;"/>
            <rect width="25" height="25" stroke="#bf265e" fill="none" stroke-width="0" transform="translate(112.5,37) translate(-12.5,-12)" style="animation: 8s linear both a7_sw;"/>
            <rect width="25" height="25" stroke="#bf265e" fill="none" stroke-width="0" transform="translate(112.5,12) translate(-12.5,-12)" style="animation: 8s linear both a8_sw;"/>
        </g>
        <g id="e" transform="translate(180.5,50) translate(-37.5,-50)">
            <rect width="25" height="25" stroke="#bf265e" fill="none" stroke-width="0" transform="translate(43.25,18.75) translate(-18.25,-18.75)" style="animation: 8s linear both a9_sw;"/>
            <rect width="25" height="25" stroke="#bf265e" fill="none" stroke-width="0" transform="translate(18.25,43.75) translate(-18.25,-18.75)" style="animation: 8s linear both a10_sw;"/>
            <rect width="25" height="25" stroke="#bf265e" fill="none" stroke-width="0" transform="translate(68.25,18.75) translate(-18.25,-18.75)" style="animation: 8s linear both a11_sw;"/>
            <rect width="25" height="25" stroke="#bf265e" fill="none" stroke-width="0" transform="translate(68.25,43.75) translate(-18.25,-18.75)" style="animation: 8s linear both a12_sw;"/>
            <rect width="25" height="25" stroke="#bf265e" fill="none" stroke-width="0" transform="translate(18.25,68.75) translate(-18.25,-18.75)" style="animation: 8s linear both a13_sw;"/>
            <rect width="25" height="25" stroke="#bf265e" fill="none" stroke-width="0" transform="translate(43.25,93.75) translate(-18.25,-18.75)" style="animation: 8s linear both a14_sw;"/>
            <rect width="25" height="25" stroke="#bf265e" fill="none" stroke-width="0" transform="translate(68.25,93.75) translate(-18.25,-18.75)" style="animation: 8s linear both a15_sw;"/>
            <rect width="25" height="25" stroke="#bf265e" fill="none" stroke-width="0" transform="translate(43.25,68.75) translate(-18.25,-18.75)" style="animation: 8s linear both a16_sw;"/>
        </g>
        <g id="e-2" transform="translate(702.5,50) translate(-37.5,-50)">
            <rect width="25" height="25" stroke="#bf265e" fill="none" stroke-width="0" transform="translate(43.25,18.75) translate(-18.25,-18.75)" style="animation: 8s linear both a17_sw;"/>
            <rect width="25" height="25" stroke="#bf265e" fill="none" stroke-width="0" transform="translate(18.25,43.75) translate(-18.25,-18.75)" style="animation: 8s linear both a18_sw;"/>
            <rect width="25" height="25" stroke="#bf265e" fill="none" stroke-width="0" transform="translate(68.25,18.75) translate(-18.25,-18.75)" style="animation: 8s linear both a19_sw;"/>
            <rect width="25" height="25" stroke="#bf265e" fill="none" stroke-width="0" transform="translate(68.25,43.75) translate(-18.25,-18.75)" style="animation: 8s linear both a20_sw;"/>
            <rect width="25" height="25" stroke="#bf265e" fill="none" stroke-width="0" transform="translate(18.25,68.75) translate(-18.25,-18.75)" style="animation: 8s linear both a21_sw;"/>
            <rect width="25" height="25" stroke="#bf265e" fill="none" stroke-width="0" transform="translate(43.25,93.75) translate(-18.25,-18.75)" style="animation: 8s linear both a22_sw;"/>
            <rect width="25" height="25" stroke="#bf265e" fill="none" stroke-width="0" transform="translate(68.25,93.75) translate(-18.25,-18.75)" style="animation: 8s linear both a23_sw;"/>
            <rect width="25" height="25" stroke="#bf265e" fill="none" stroke-width="0" transform="translate(43.25,68.75) translate(-18.25,-18.75)" style="animation: 8s linear both a24_sw;"/>
        </g>
        <g id="l" transform="translate(266,50) translate(-25,-50)">
            <rect width="25" height="25" stroke="#bf265e" fill="none" stroke-width="0" transform="translate(19,12.5) translate(-19,-12.5)" style="animation: 8s linear both a25_sw;"/>
            <rect width="25" height="25" stroke="#bf265e" fill="none" stroke-width="0" transform="translate(19,37.5) translate(-19,-12.5)" style="animation: 8s linear both a26_sw;"/>
            <rect width="25" height="25" stroke="#bf265e" fill="none" stroke-width="0" transform="translate(19,62.5) translate(-19,-12.5)" style="animation: 8s linear both a27_sw;"/>
            <rect width="25" height="25" stroke="#bf265e" fill="none" stroke-width="0" transform="translate(19,87.5) translate(-19,-12.5)" style="animation: 8s linear both a28_sw;"/>
            <rect width="25" height="25" stroke="#bf265e" fill="none" stroke-width="0" transform="translate(44,87.5) translate(-19,-12.5)" style="animation: 8s linear both a29_sw;"/>
        </g>
        <g id="c" transform="translate(335.5,50) translate(-25,-50)">
            <rect width="25" height="25" stroke="#bf265e" fill="none" stroke-width="0" transform="translate(37.5,12.5) translate(-12.5,-12.5)" style="animation: 8s linear both a30_sw;"/>
            <rect width="25" height="25" stroke="#bf265e" fill="none" stroke-width="0" transform="translate(12.5,12.5) translate(-12.5,-12.5)" style="animation: 8s linear both a31_sw;"/>
            <rect width="25" height="25" stroke="#bf265e" fill="none" stroke-width="0" transform="translate(12.5,37.5) translate(-12.5,-12.5)" style="animation: 8s linear both a32_sw;"/>
            <rect width="25" height="25" stroke="#bf265e" fill="none" stroke-width="0" transform="translate(12.5,62.5) translate(-12.5,-12.5)" style="animation: 8s linear both a33_sw;"/>
            <rect width="25" height="25" stroke="#bf265e" fill="none" stroke-width="0" transform="translate(12.5,87.5) translate(-12.5,-12.5)" style="animation: 8s linear both a34_sw;"/>
            <rect width="25" height="25" stroke="#bf265e" fill="none" stroke-width="0" transform="translate(37.5,87.5) translate(-12.5,-12.5)" style="animation: 8s linear both a35_sw;"/>
        </g>
        <g id="o" transform="translate(434,50) translate(-50,-50)">
            <rect width="25" height="25" stroke="#bf265e" fill="none" stroke-width="0" transform="translate(14,37.5) translate(-14,-12.5)" style="animation: 8s linear both a36_sw;"/>
            <rect width="25" height="25" stroke="#bf265e" fill="none" stroke-width="0" transform="translate(39,12.5) translate(-14,-12.5)" style="animation: 8s linear both a37_sw;"/>
            <rect width="25" height="25" stroke="#bf265e" fill="none" stroke-width="0" transform="translate(64,12.5) translate(-14,-12.5)" style="animation: 8s linear both a38_sw;"/>
            <rect width="25" height="25" stroke="#bf265e" fill="none" stroke-width="0" transform="translate(89,37.5) translate(-14,-12.5)" style="animation: 8s linear both a39_sw;"/>
            <rect width="25" height="25" stroke="#bf265e" fill="none" stroke-width="0" transform="translate(89,62.5) translate(-14,-12.5)" style="animation: 8s linear both a40_sw;"/>
            <rect width="25" height="25" stroke="#bf265e" fill="none" stroke-width="0" transform="translate(64,87.5) translate(-14,-12.5)" style="animation: 8s linear both a41_sw;"/>
            <rect width="25" height="25" stroke="#bf265e" fill="none" stroke-width="0" transform="translate(39,87.5) translate(-14,-12.5)" style="animation: 8s linear both a42_sw;"/>
            <rect width="25" height="25" stroke="#bf265e" fill="none" stroke-width="0" transform="translate(14,62.5) translate(-14,-12.5)" style="animation: 8s linear both a43_sw;"/>
        </g>
        <g id="m" transform="translate(581.5,50) translate(-62.5,-50)">
            <rect width="25" height="25" stroke="#bf265e" fill="none" stroke-width="0" transform="translate(12.5,12.5) translate(-12.5,-12.5)" style="animation: 8s linear both a44_sw;"/>
            <rect width="25" height="25" stroke="#bf265e" fill="none" stroke-width="0" transform="translate(12.5,37.5) translate(-12.5,-12.5)" style="animation: 8s linear both a45_sw;"/>
            <rect width="25" height="25" stroke="#bf265e" fill="none" stroke-width="0" transform="translate(12.5,62.5) translate(-12.5,-12.5)" style="animation: 8s linear both a46_sw;"/>
            <rect width="25" height="25" stroke="#bf265e" fill="none" stroke-width="0" transform="translate(12.5,87.5) translate(-12.5,-12.5)" style="animation: 8s linear both a47_sw;"/>
            <rect width="25" height="25" stroke="#bf265e" fill="none" stroke-width="0" transform="translate(37.5,37.5) translate(-12.5,-12.5)" style="animation: 8s linear both a48_sw;"/>
            <rect width="25" height="25" stroke="#bf265e" fill="none" stroke-width="0" transform="translate(62.5,62.5) translate(-12.5,-12.5)" style="animation: 8s linear both a49_sw;"/>
            <rect width="25" height="25" stroke="#bf265e" fill="none" stroke-width="0" transform="translate(87.5,37.5) translate(-12.5,-12.5)" style="animation: 8s linear both a50_sw;"/>
            <rect width="25" height="25" stroke="#bf265e" fill="none" stroke-width="0" transform="translate(112.5,12.5) translate(-12.5,-12.5)" style="animation: 8s linear both a51_sw;"/>
            <rect width="25" height="25" stroke="#bf265e" fill="none" stroke-width="0" transform="translate(112.5,37.5) translate(-12.5,-12.5)" style="animation: 8s linear both a52_sw;"/>
            <rect width="25" height="25" stroke="#bf265e" fill="none" stroke-width="0" transform="translate(112.5,62.5) translate(-12.5,-12.5)" style="animation: 8s linear both a53_sw;"/>
            <rect width="25" height="25" stroke="#bf265e" fill="none" stroke-width="0" transform="translate(112.5,87.5) translate(-12.5,-12.5)" style="animation: 8s linear both a54_sw;"/>
        </g>
    </g>
    <g id="to" transform="translate(707,300.917) translate(-96.5,-50)">
        <g id="t" transform="translate(37.5,50) translate(-37.5,-50)">
            <rect width="25" height="25" stroke="#bf265e" fill="none" stroke-width="0" transform="translate(15.25,15.5) translate(-15.25,-15.5)" style="animation: 8s linear both a55_sw;"/>
            <rect width="25" height="25" stroke="#bf265e" fill="none" stroke-width="0" transform="translate(40.25,15.5) translate(-15.25,-15.5)" style="animation: 8s linear both a56_sw;"/>
            <rect width="25" height="25" stroke="#bf265e" fill="none" stroke-width="0" transform="translate(65.25,15.5) translate(-15.25,-15.5)" style="animation: 8s linear both a57_sw;"/>
            <rect width="25" height="25" stroke="#bf265e" fill="none" stroke-width="0" transform="translate(40.25,40.5) translate(-15.25,-15.5)" style="animation: 8s linear both a58_sw;"/>
            <rect width="25" height="25" stroke="#bf265e" fill="none" stroke-width="0" transform="translate(40.25,65.5) translate(-15.25,-15.5)" style="animation: 8s linear both a59_sw;"/>
            <rect width="25" height="25" stroke="#bf265e" fill="none" stroke-width="0" transform="translate(40.25,90.5) translate(-15.25,-15.5)" style="animation: 8s linear both a60_sw;"/>
        </g>
        <g id="o-2" transform="translate(142.75,50) translate(-50.25,-50)">
            <rect width="25" height="25" stroke="#bf265e" fill="none" stroke-width="0" transform="translate(12.5,37.5) translate(-12.5,-12.5)" style="animation: 8s linear both a61_sw;"/>
            <rect width="25" height="25" stroke="#bf265e" fill="none" stroke-width="0" transform="translate(12.5,62.5) translate(-12.5,-12.5)" style="animation: 8s linear both a62_sw;"/>
            <rect width="25" height="25" stroke="#bf265e" fill="none" stroke-width="0" transform="translate(37.5,87.5) translate(-12.5,-12.5)" style="animation: 8s linear both a63_sw;"/>
            <rect width="25" height="25" stroke="#bf265e" fill="none" stroke-width="0" transform="translate(62.5,87.5) translate(-12.5,-12.5)" style="animation: 8s linear both a64_sw;"/>
            <rect width="25" height="25" stroke="#bf265e" fill="none" stroke-width="0" transform="translate(88,62.5) translate(-12.5,-12.5)" style="animation: 8s linear both a65_sw;"/>
            <rect width="25" height="25" stroke="#bf265e" fill="none" stroke-width="0" transform="translate(87.5,37.5) translate(-12.5,-12.5)" style="animation: 8s linear both a66_sw;"/>
            <rect width="25" height="25" stroke="#bf265e" fill="none" stroke-width="0" transform="translate(63,12.5) translate(-12.5,-12.5)" style="animation: 8s linear both a67_sw;"/>
            <rect width="25" height="25" stroke="#bf265e" fill="none" stroke-width="0" transform="translate(37.5,12.5) translate(-12.5,-12.5)" style="animation: 8s linear both a68_sw;"/>
        </g>
    </g>
    <g id="ultrareality" filter="drop-shadow(5px 5px 2px rgba(138,138,211,0.50)) hue-rotate(360deg)" opacity="0" transform="translate(712.444,518.5) translate(-571.12,-50)" style="mix-blend-mode: normal; animation: 8s linear both ultrareality_o, 15s linear infinite both ultrareality_ft;">
        <g id="u" transform="translate(95.551,103.083) translate(-50,-50)">
            <rect width="25" height="25" stroke="none" fill="#86c6ec" stroke-width="5" transform="translate(18.75,15.5) translate(-18.75,-15.5)"/>
            <rect width="25" height="25" stroke="none" fill="#86c6ec" stroke-width="5" transform="translate(18.75,40.5) translate(-18.75,-15.5)"/>
            <rect width="25" height="25" stroke="none" fill="#86c6ec" stroke-width="5" transform="translate(18.75,65.5) translate(-18.75,-15.5)"/>
            <rect width="25" height="25" stroke="none" fill="#86c6ec" stroke-width="5" transform="translate(43.75,90.5) translate(-18.75,-15.5)"/>
            <rect width="25" height="25" stroke="none" fill="#86c6ec" stroke-width="5" transform="translate(68.75,90.5) translate(-18.75,-15.5)"/>
            <rect width="25" height="25" stroke="none" fill="#86c6ec" stroke-width="5" transform="translate(93.75,65.5) translate(-18.75,-15.5)"/>
            <rect width="25" height="25" stroke="none" fill="#86c6ec" stroke-width="5" transform="translate(93.75,40.5) translate(-18.75,-15.5)"/>
            <rect width="25" height="25" stroke="none" fill="#86c6ec" stroke-width="5" transform="translate(93.75,15.5) translate(-18.75,-15.5)"/>
        </g>
        <g id="l-3" transform="translate(188.551,103.083) translate(-25,-50)">
            <rect width="25" height="25" fill="#86ec9e" stroke-width="5" stroke="none" transform="translate(12.5,12.5) translate(-12.5,-12.5)"/>
            <rect width="25" height="25" fill="#86ec9e" stroke-width="5" stroke="none" transform="translate(12.5,37.5) translate(-12.5,-12.5)"/>
            <rect width="25" height="25" fill="#86ec9e" stroke-width="5" stroke="none" transform="translate(12.5,62.5) translate(-12.5,-12.5)"/>
            <rect width="25" height="25" fill="#86ec9e" stroke-width="5" stroke="none" transform="translate(12.5,87.5) translate(-12.5,-12.5)"/>
            <rect width="25" height="25" fill="#86ec9e" stroke-width="5" stroke="none" transform="translate(37.5,87.5) translate(-12.5,-12.5)"/>
        </g>
        <g id="l-2" transform="translate(822.801,103.083) translate(-25,-50)">
            <rect width="25" height="25" fill="#ea4f20" stroke-width="5" stroke="none" transform="translate(12.5,12.5) translate(-12.5,-12.5)"/>
            <rect width="25" height="25" fill="#ea4f20" stroke-width="5" stroke="none" transform="translate(12.5,37.5) translate(-12.5,-12.5)"/>
            <rect width="25" height="25" fill="#ea4f20" stroke-width="5" stroke="none" transform="translate(12.5,62.5) translate(-12.5,-12.5)"/>
            <rect width="25" height="25" fill="#ea4f20" stroke-width="5" stroke="none" transform="translate(12.5,87.5) translate(-12.5,-12.5)"/>
            <rect width="25" height="25" fill="#ea4f20" stroke-width="5" stroke="none" transform="translate(37.5,87.5) translate(-12.5,-12.5)"/>
        </g>
        <g id="t-3" transform="translate(261.551,103.083) translate(-37.5,-50)">
            <rect width="25" height="25" fill="#f6f150" stroke-width="5" stroke="none" transform="translate(12.5,12.5) translate(-12.5,-12.5)"/>
            <rect width="25" height="25" fill="#f6f150" stroke-width="5" stroke="none" transform="translate(37.5,12.5) translate(-12.5,-12.5)"/>
            <rect width="25" height="25" fill="#f6f150" stroke-width="5" stroke="none" transform="translate(62.5,12.5) translate(-12.5,-12.5)"/>
            <rect width="25" height="25" fill="#f6f150" stroke-width="5" stroke="none" transform="translate(37.5,37.5) translate(-12.5,-12.5)"/>
            <rect width="25" height="25" fill="#f6f150" stroke-width="5" stroke="none" transform="translate(37.5,62.5) translate(-12.5,-12.5)"/>
            <rect width="25" height="25" fill="#f6f150" stroke-width="5" stroke="none" transform="translate(37.5,87.5) translate(-12.5,-12.5)"/>
        </g>
        <g id="t-2" transform="translate(954.551,103.083) translate(-37.5,-50)">
            <rect width="25" height="25" fill="#f6f150" stroke-width="5" stroke="none" transform="translate(12.5,12.5) translate(-12.5,-12.5)"/>
            <rect width="25" height="25" fill="#f6f150" stroke-width="5" stroke="none" transform="translate(37.5,12.5) translate(-12.5,-12.5)"/>
            <rect width="25" height="25" fill="#f6f150" stroke-width="5" stroke="none" transform="translate(62.5,12.5) translate(-12.5,-12.5)"/>
            <rect width="25" height="25" fill="#f6f150" stroke-width="5" stroke="none" transform="translate(37.5,37.5) translate(-12.5,-12.5)"/>
            <rect width="25" height="25" fill="#f6f150" stroke-width="5" stroke="none" transform="translate(37.5,62.5) translate(-12.5,-12.5)"/>
            <rect width="25" height="25" fill="#f6f150" stroke-width="5" stroke="none" transform="translate(37.5,87.5) translate(-12.5,-12.5)"/>
        </g>
        <g id="r" transform="translate(356.426,103.083) translate(-37.125,-50)">
            <rect width="24.5" height="25" fill="#ea8dcd" stroke-width="5" stroke="none" transform="translate(12.25,12.5) translate(-12.25,-12.5)"/>
            <rect width="24.5" height="25" fill="#ea8dcd" stroke-width="5" stroke="none" transform="translate(12.25,37.5) translate(-12.25,-12.5)"/>
            <rect width="24.5" height="25" fill="#ea8dcd" stroke-width="5" stroke="none" transform="translate(12.25,62.5) translate(-12.25,-12.5)"/>
            <rect width="24.5" height="25" fill="#ea8dcd" stroke-width="5" stroke="none" transform="translate(12.25,87.5) translate(-12.25,-12.5)"/>
            <rect width="24.5" height="25" fill="#ea8dcd" stroke-width="5" stroke="none" transform="translate(36.75,12.5) translate(-12.25,-12.5)"/>
            <rect width="24.5" height="25" fill="#ea8dcd" stroke-width="5" stroke="none" transform="translate(61.25,37.5) translate(-12.25,-12.5)"/>
            <rect width="24.5" height="25" fill="#ea8dcd" stroke-width="5" stroke="none" transform="translate(36.75,62.5) translate(-12.25,-12.5)"/>
            <rect width="24.5" height="25" fill="#ea8dcd" stroke-width="5" stroke="none" transform="translate(62,87.5) translate(-12.25,-12.5)"/>
        </g>
        <g id="r-2" transform="translate(552.426,103.083) translate(-37.125,-50)">
            <rect width="24.5" height="25" fill="#8de5ea" stroke-width="5" stroke="none" transform="translate(12.25,12.5) translate(-12.25,-12.5)"/>
            <rect width="24.5" height="25" fill="#8de5ea" stroke-width="5" stroke="none" transform="translate(12.25,37.5) translate(-12.25,-12.5)"/>
            <rect width="24.5" height="25" fill="#8de5ea" stroke-width="5" stroke="none" transform="translate(12.25,62.5) translate(-12.25,-12.5)"/>
            <rect width="24.5" height="25" fill="#8de5ea" stroke-width="5" stroke="none" transform="translate(12.25,87.5) translate(-12.25,-12.5)"/>
            <rect width="24.5" height="25" fill="#8de5ea" stroke-width="5" stroke="none" transform="translate(36.75,12.5) translate(-12.25,-12.5)"/>
            <rect width="24.5" height="25" fill="#8de5ea" stroke-width="5" stroke="none" transform="translate(61.25,37.5) translate(-12.25,-12.5)"/>
            <rect width="24.5" height="25" fill="#8de5ea" stroke-width="5" stroke="none" transform="translate(36.75,62.5) translate(-12.25,-12.5)"/>
            <rect width="24.5" height="25" fill="#8de5ea" stroke-width="5" stroke="none" transform="translate(62,87.5) translate(-12.25,-12.5)"/>
        </g>
        <g id="a" transform="translate(454.551,103.083) translate(-37.5,-50)">
            <rect width="25" height="25" fill="#f04276" stroke-width="5" stroke="none" transform="translate(12.5,87.5) translate(-12.5,-12.5)"/>
            <rect width="25" height="25" fill="#f04276" stroke-width="5" stroke="none" transform="translate(12.5,62.5) translate(-12.5,-12.5)"/>
            <rect width="25" height="25" fill="#f04276" stroke-width="5" stroke="none" transform="translate(12.5,37.5) translate(-12.5,-12.5)"/>
            <rect width="25" height="25" fill="#f04276" stroke-width="5" stroke="none" transform="translate(37.5,12.5) translate(-12.5,-12.5)"/>
            <rect width="25" height="25" fill="#f04276" stroke-width="5" stroke="none" transform="translate(62.5,37.5) translate(-12.5,-12.5)"/>
            <rect width="25" height="25" fill="#f04276" stroke-width="5" stroke="none" transform="translate(62.5,62.5) translate(-12.5,-12.5)"/>
            <rect width="25" height="25" fill="#f04276" stroke-width="5" stroke="none" transform="translate(62.5,87.5) translate(-12.5,-12.5)"/>
            <rect width="25" height="25" fill="#f04276" stroke-width="5" stroke="none" transform="translate(37.5,62.5) translate(-12.5,-12.5)"/>
        </g>
        <g id="a-2" transform="translate(735.301,103.083) translate(-37.5,-50)">
            <rect width="25" height="25" fill="#f0e142" stroke-width="5" stroke="none" transform="translate(12.5,87.5) translate(-12.5,-12.5)"/>
            <rect width="25" height="25" fill="#f0e142" stroke-width="5" stroke="none" transform="translate(12.5,62.5) translate(-12.5,-12.5)"/>
            <rect width="25" height="25" fill="#f0e142" stroke-width="5" stroke="none" transform="translate(12.5,37.5) translate(-12.5,-12.5)"/>
            <rect width="25" height="25" fill="#f0e142" stroke-width="5" stroke="none" transform="translate(37.5,12.5) translate(-12.5,-12.5)"/>
            <rect width="25" height="25" fill="#f0e142" stroke-width="5" stroke="none" transform="translate(62.5,37.5) translate(-12.5,-12.5)"/>
            <rect width="25" height="25" fill="#f0e142" stroke-width="5" stroke="none" transform="translate(62.5,62.5) translate(-12.5,-12.5)"/>
            <rect width="25" height="25" fill="#f0e142" stroke-width="5" stroke="none" transform="translate(62.5,87.5) translate(-12.5,-12.5)"/>
            <rect width="25" height="25" fill="#f0e142" stroke-width="5" stroke="none" transform="translate(37.5,62.5) translate(-12.5,-12.5)"/>
        </g>
        <g id="e-3" transform="translate(639.551,103.083) translate(-37.5,-50)">
            <rect width="25" height="25" stroke="none" fill="#a1f257" stroke-width="5" transform="translate(12.5,37.5) translate(-12.5,-12.5)"/>
            <rect width="25" height="25" stroke="none" fill="#a1f257" stroke-width="5" transform="translate(37.5,12.5) translate(-12.5,-12.5)"/>
            <rect width="25" height="25" stroke="none" fill="#a1f257" stroke-width="5" transform="translate(62.5,12.5) translate(-12.5,-12.5)"/>
            <rect width="25" height="25" stroke="none" fill="#a1f257" stroke-width="5" transform="translate(62.5,37.5) translate(-12.5,-12.5)"/>
            <rect width="25" height="25" stroke="none" fill="#a1f257" stroke-width="5" transform="translate(37.5,62.5) translate(-12.5,-12.5)"/>
            <rect width="25" height="25" stroke="none" fill="#a1f257" stroke-width="5" transform="translate(12.5,62.5) translate(-12.5,-12.5)"/>
            <rect width="25" height="25" stroke="none" fill="#a1f257" stroke-width="5" transform="translate(37.5,87.5) translate(-12.5,-12.5)"/>
            <rect width="25" height="25" stroke="none" fill="#a1f257" stroke-width="5" transform="translate(62.5,87.5) translate(-12.5,-12.5)"/>
        </g>
        <g id="i" transform="translate(880.301,103.083) translate(-12.5,-50)">
            <rect width="25" height="25" fill="#a1f257" stroke-width="5" stroke="none" transform="translate(12.5,12.5) translate(-12.5,-12.5)"/>
            <rect width="25" height="25" fill="#a1f257" stroke-width="5" stroke="none" transform="translate(12.5,37.5) translate(-12.5,-12.5)"/>
            <rect width="25" height="25" fill="#a1f257" stroke-width="5" stroke="none" transform="translate(12.5,62.5) translate(-12.5,-12.5)"/>
            <rect width="25" height="25" fill="#a1f257" stroke-width="5" stroke="none" transform="translate(12.5,87.5) translate(-12.5,-12.5)"/>
        </g>
        <g id="y" transform="translate(1048.3,103.083) translate(-37.5,-50)">
            <rect width="25" height="25" fill="#988eed" stroke-width="5" stroke="none" transform="translate(12.5,12.5) translate(-12.5,-12.5)"/>
            <rect width="25" height="25" fill="#988eed" stroke-width="5" stroke="none" transform="translate(12.5,37.5) translate(-12.5,-12.5)"/>
            <rect width="25" height="25" fill="#988eed" stroke-width="5" stroke="none" transform="translate(37.5,62.5) translate(-12.5,-12.5)"/>
            <rect width="25" height="25" fill="#988eed" stroke-width="5" stroke="none" transform="translate(37.5,87.5) translate(-12.5,-12.5)"/>
            <rect width="25" height="25" fill="#988eed" stroke-width="5" stroke="none" transform="translate(62.5,37.5) translate(-12.5,-12.5)"/>
            <rect width="25" height="25" fill="#988eed" stroke-width="5" stroke="none" transform="translate(62.5,12.5) translate(-12.5,-12.5)"/>
        </g>
    </g>
</svg>
